<svg xmlns="http://www.w3.org/2000/svg" width="527.348" height="515.879" viewBox="0 0 527.348 515.879">
  <g id="Registration" transform="translate(-55 -26.188)">
    <g id="Group_3" data-name="Group 3" transform="translate(62.177 47.239)">
      <path id="Path_1" data-name="Path 1" d="M60.5,159.1l145.507-.392-37.062-7.569s1.566-41.629-16.7-33.277a32.487,32.487,0,0,0-18.922,26.491s-6.786-16.7-16.7-10.57c-9.787,6-14.355,16.7-14.355,16.7s-3.523-12.006-9.787-12.658c-5.35-.522-15.66,10.831-21.01,17.226Z" transform="translate(-60.5 -19.618)" fill="#ddcaca" opacity="0.33"/>
      <path id="Path_2" data-name="Path 2" d="M367.1,208.386l120.059-.391-30.667-5.611s1.3-30.928-13.7-24.795-15.66,19.705-15.66,19.705-5.611-12.4-13.7-7.83a30.88,30.88,0,0,0-11.875,12.4s-2.871-8.874-8.091-9.4c-4.437-.392-12.919,8.091-17.356,12.789Z" transform="translate(33.011 -1.309)" fill="#ddcaca" opacity="0.33"/>
      <path id="Path_3" data-name="Path 3" d="M217.4,77.4l120.059-.392-30.537-6.264s1.3-34.321-13.7-27.535a26.9,26.9,0,0,0-15.66,21.924s-5.611-13.7-13.7-8.743-11.875,13.7-11.875,13.7-2.871-9.918-8.091-10.44c-4.437-.522-12.919,8.874-17.356,14.224Z" transform="translate(-12.647 -42.319)" fill="#ddcaca" opacity="0.33"/>
    </g>
    <g id="Group_33" data-name="Group 33" transform="translate(195.302 26.188)">
      <path id="Path_4" data-name="Path 4" d="M403.472,61.569,394.337,64.7l-3.915-11.353A40.4,40.4,0,1,0,314.08,79.839L318,91.192l-9.135,3.132a13.739,13.739,0,0,0-8.482,17.487l25.708,74.254a13.86,13.86,0,0,0,17.487,8.613l94.482-32.755a13.95,13.95,0,0,0,8.613-17.617L420.959,70.051A13.534,13.534,0,0,0,403.472,61.569ZM331.436,73.705A22.1,22.1,0,1,1,373.2,59.22l3.915,11.353-41.76,14.485Zm54.81,67.729,6.525,18.922a1.689,1.689,0,0,1-1.044,1.957l-9.135,3.132a1.46,1.46,0,0,1-1.827-.913L374.24,145.61a17.631,17.631,0,1,1,12.006-4.176Z" transform="translate(-120.696 -26.188)" fill="#b3adec"/>
      <g id="Group_4" data-name="Group 4" transform="translate(197.713 355.587)">
        <path id="Path_5" data-name="Path 5" d="M336.571,344.906c-2.219-4.437,3-9,7.83-9.918s10.309-.261,14.224-3.262c5.089-4.045,4.829-12.919,10.57-16.182,4.567-2.61,10.7-.13,15.529-2.219,6-2.61,7.7-10.962,13.572-13.833,4.7-2.219,10.831.261,13.311,4.959,2.349,4.7,1.3,10.57-2.088,14.616-2.61,3.132-6.525,5.35-8.091,9.135-2.479,5.872,1.435,12.919-.914,18.922-4.306,10.962-24.664,7.7-28.188,18.922-.783,2.479-.392,5.22-.652,7.83-.653,7.83-6.134,14.616-12.919,18.531s-14.746,5.22-22.576,5.742c-3.132.261-6.525.261-9.4-1.174a16.1,16.1,0,0,1-6-6.525c-9.265-16.965-13.05-39.15,15.79-45.544" transform="translate(-314.017 -298.67)" fill="#78ba9a"/>
      </g>
      <g id="Group_5" data-name="Group 5" transform="translate(0 302.278)">
        <path id="Path_6" data-name="Path 6" d="M232.575,348.36c5.089-3.393,2.218-11.484-2.479-15.4-4.7-3.784-10.962-6.394-13.18-12.006-3-7.438,2.61-16.834-1.566-23.751-3.262-5.611-11.353-6.525-15.268-11.614-4.959-6.394-1.7-16.312-6.264-22.968-3.654-5.22-11.875-6.264-17.226-2.74s-7.83,10.57-6.655,16.834c.913,4.959,3.654,9.657,3.132,14.616-.783,7.83-9.4,13.05-10.44,20.749-1.957,14.355,21.793,23.1,18.792,37.323-.652,3.132-2.61,5.872-4.045,8.743-4.045,8.743-2.218,19.314,2.61,27.535,4.959,8.221,12.658,14.485,20.619,19.705,3.262,2.219,6.786,4.306,10.7,4.437,3.654.131,7.177-1.435,10.309-3.393,20.488-12.528,37.975-33.8,10.962-58.072" transform="translate(-162.512 -257.82)" fill="#ffa938"/>
      </g>
      <g id="Group_7" data-name="Group 7" transform="translate(200.368 268.452)">
        <g id="Group_6" data-name="Group 6" transform="translate(0 19.183)">
          <path id="Path_7" data-name="Path 7" d="M317.811,369.791c7.047-3,13.441-8.613,18.661-14.094,14.224-14.616,22.968-33.8,27.666-53.5,4.176-17.878,5.089-36.279,4.306-54.418-.131-1.566-2.479-1.566-2.349,0,1.957,40.977-6.133,91.219-42.8,116.144a40.475,40.475,0,0,1-6.525,3.784c-1.566.652-.261,2.741,1.044,2.088Z" transform="translate(-316.052 -246.6)" fill="#e1806d"/>
        </g>
        <path id="Path_8" data-name="Path 8" d="M353.2,287.6s2.349-13.311,19.966-15.4C373.036,272.2,366.641,287.86,353.2,287.6Z" transform="translate(-304.722 -219.609)" fill="#e1806d"/>
        <path id="Path_9" data-name="Path 9" d="M348.7,301.465s5.35-12.4,22.968-10.309C371.668,291.155,361.75,304.858,348.7,301.465Z" transform="translate(-306.094 -213.9)" fill="#e1806d"/>
        <path id="Path_10" data-name="Path 10" d="M343,313.767s7.96-10.831,24.664-4.959C367.664,308.938,355.006,320.161,343,313.767Z" transform="translate(-307.833 -208.976)" fill="#e1806d"/>
        <path id="Path_11" data-name="Path 11" d="M355.2,271.738s2.219-13.05,19.575-15.138C374.775,256.6,368.511,272,355.2,271.738Z" transform="translate(-304.112 -224.367)" fill="#e1806d"/>
        <path id="Path_12" data-name="Path 12" d="M356.6,256.564s-9.787-8.874-2.349-24.664C354.252,231.9,363.909,245.472,356.6,256.564Z" transform="translate(-305.252 -231.9)" fill="#e1806d"/>
        <path id="Path_13" data-name="Path 13" d="M358.977,265.705S345.927,263.356,344.1,246C343.97,246,359.369,252.394,358.977,265.705Z" transform="translate(-307.497 -227.6)" fill="#e1806d"/>
        <path id="Path_14" data-name="Path 14" d="M357.977,280.905s-13.05-2.349-14.877-19.705C342.97,261.2,358.369,267.725,357.977,280.905Z" transform="translate(-307.802 -222.964)" fill="#e1806d"/>
        <path id="Path_15" data-name="Path 15" d="M355.072,295.449S342.283,292.187,341.5,274.7C341.5,274.7,356.377,282.269,355.072,295.449Z" transform="translate(-308.29 -218.846)" fill="#e1806d"/>
        <path id="Path_16" data-name="Path 16" d="M350.472,309.649S337.683,306.387,336.9,288.9C337.031,289.031,351.907,296.469,350.472,309.649Z" transform="translate(-309.693 -214.515)" fill="#e1806d"/>
      </g>
      <g id="Group_32" data-name="Group 32" transform="translate(44.876 90.582)">
        <path id="Path_17" data-name="Path 17" d="M356.5,462.564H224.435A27.541,27.541,0,0,1,196.9,435.029V123.135A27.541,27.541,0,0,1,224.435,95.6H356.37a27.541,27.541,0,0,1,27.535,27.535V434.9A27.458,27.458,0,0,1,356.5,462.564Z" transform="translate(-196.9 -95.6)" fill="#6756ad"/>
        <path id="Path_18" data-name="Path 18" d="M354.1,447.013H222.814A19.27,19.27,0,0,1,203.5,427.7V123.114A19.27,19.27,0,0,1,222.814,103.8H354.1a19.27,19.27,0,0,1,19.314,19.314V427.7A19.27,19.27,0,0,1,354.1,447.013Z" transform="translate(-194.887 -93.099)" fill="#efebeb"/>
        <path id="Path_19" data-name="Path 19" d="M334.775,104.532H323.683a6.126,6.126,0,0,0-6.133,6.133V115.1a6.126,6.126,0,0,1-6.133,6.133H262.087a6.126,6.126,0,0,1-6.133-6.133v-4.437a6.126,6.126,0,0,0-6.133-6.133H218.5V101.4H334.775v3.132Z" transform="translate(-190.312 -93.831)" fill="#6756ad"/>
        <g id="Group_31" data-name="Group 31" transform="translate(32.494 59.377)">
          <g id="Group_30" data-name="Group 30">
            <g id="Group_9" data-name="Group 9" transform="translate(34.281)">
              <path id="Path_20" data-name="Path 20" d="M273.328,145.406a2.153,2.153,0,0,0,1.174-1.957,2.349,2.349,0,1,0-4.7,0,2.251,2.251,0,0,0,1.174,1.957A3.649,3.649,0,0,0,268.5,148.8v1.827h7.177V148.8A3.269,3.269,0,0,0,273.328,145.406Z" transform="translate(-241.838 -141.1)" fill="#37366a"/>
              <g id="Group_8" data-name="Group 8" transform="translate(0 14.274)">
                <text id="Create_Account" data-name="Create Account" transform="translate(0 7)" fill="#37366a" font-size="7" font-family="Montserrat-Regular, Montserrat"><tspan x="0" y="0">Create Account</tspan></text>
              </g>
            </g>
            <g id="Group_11" data-name="Group 11" transform="translate(24.795 228.374)">
              <path id="Path_21" data-name="Path 21" d="M310.226,332.021H242.105a1.308,1.308,0,0,1-1.3-1.3V317.4a1.308,1.308,0,0,1,1.3-1.3h68.121a1.308,1.308,0,0,1,1.3,1.3v13.311A1.308,1.308,0,0,1,310.226,332.021Z" transform="translate(-240.8 -316.1)" fill="#a43f60"/>
              <g id="Group_10" data-name="Group 10" transform="translate(23.201 4.447)">
                <text id="Register" transform="translate(0 5)" fill="#f3f4e9" font-size="5" font-family="Montserrat-Regular, Montserrat"><tspan x="0" y="0">Register</tspan></text>
              </g>
            </g>
            <g id="Group_14" data-name="Group 14" transform="translate(0 38.213)">
              <g id="Group_12" data-name="Group 12" transform="translate(0.075)" opacity="0.57">
                <text id="Email_Address" data-name="Email Address" transform="translate(0 5)" fill="#37366a" font-size="5" font-family="Montserrat-Regular, Montserrat"><tspan x="0" y="0">Email Address</tspan></text>
              </g>
              <g id="Group_13" data-name="Group 13" transform="translate(6.091 17.47)">
                <text id="youremail_gmail.c" data-name="youremail@gmail.c" transform="translate(0 5)" fill="#37366a" font-size="5" font-family="Montserrat-Regular, Montserrat"><tspan x="0" y="0">youremail@gmail.c</tspan></text>
              </g>
              <path id="Path_22" data-name="Path 22" d="M347.6,198.375H225.454a3.648,3.648,0,0,1-3.654-3.654V182.454a3.648,3.648,0,0,1,3.654-3.654H347.6a3.648,3.648,0,0,1,3.654,3.654v12.267A3.828,3.828,0,0,1,347.6,198.375Z" transform="translate(-221.8 -167.815)" fill="none" stroke="#37366a" stroke-miterlimit="10" stroke-width="0.5"/>
            </g>
            <g id="Group_19" data-name="Group 19" transform="translate(0 81.581)">
              <g id="Group_18" data-name="Group 18">
                <g id="Group_15" data-name="Group 15" transform="translate(0.075)" opacity="0.52">
                  <text id="Country" transform="translate(0 5)" fill="#37366a" font-size="5" font-family="Montserrat-Regular, Montserrat"><tspan x="0" y="0">Country</tspan></text>
                </g>
                <g id="Group_17" data-name="Group 17" transform="translate(0 11.204)">
                  <g id="Group_16" data-name="Group 16" transform="translate(6.091 6.097)">
                    <text id="Your_text" data-name="Your text" transform="translate(0 5)" fill="#37366a" font-size="5" font-family="Montserrat-Regular, Montserrat"><tspan x="0" y="0">Your text</tspan></text>
                  </g>
                  <path id="Path_23" data-name="Path 23" d="M347.6,231.644H225.454a3.648,3.648,0,0,1-3.654-3.654V215.854a3.648,3.648,0,0,1,3.654-3.654H347.6a3.648,3.648,0,0,1,3.654,3.654v12.267A3.71,3.71,0,0,1,347.6,231.644Z" transform="translate(-221.8 -212.2)" fill="none" stroke="#37366a" stroke-miterlimit="10" stroke-width="0.5"/>
                </g>
              </g>
            </g>
            <g id="Group_24" data-name="Group 24" transform="translate(0 127.37)">
              <g id="Group_23" data-name="Group 23">
                <g id="Group_20" data-name="Group 20" transform="translate(0.075)" opacity="0.52">
                  <text id="City" transform="translate(0 5)" fill="#37366a" font-size="5" font-family="Montserrat-Regular, Montserrat"><tspan x="0" y="0">City</tspan></text>
                </g>
                <g id="Group_22" data-name="Group 22" transform="translate(0 11.089)">
                  <g id="Group_21" data-name="Group 21" transform="translate(6.091 6.213)">
                    <text id="Your_City" data-name="Your City" transform="translate(0 5)" fill="#37366a" font-size="5" font-family="Montserrat-Regular, Montserrat"><tspan x="0" y="0">Your City</tspan></text>
                  </g>
                  <path id="Path_24" data-name="Path 24" d="M347.6,266.775H225.454a3.648,3.648,0,0,1-3.654-3.654V250.854a3.648,3.648,0,0,1,3.654-3.654H347.6a3.648,3.648,0,0,1,3.654,3.654v12.267A3.733,3.733,0,0,1,347.6,266.775Z" transform="translate(-221.8 -247.2)" fill="none" stroke="#37366a" stroke-miterlimit="10" stroke-width="0.5"/>
                </g>
              </g>
            </g>
            <g id="Group_29" data-name="Group 29" transform="translate(0 173.384)">
              <g id="Group_28" data-name="Group 28">
                <g id="Group_25" data-name="Group 25" transform="translate(0.075)" opacity="0.52">
                  <text id="Password" transform="translate(0 5)" fill="#37366a" font-size="5" font-family="Montserrat-Regular, Montserrat"><tspan x="0" y="0">Password</tspan></text>
                </g>
                <g id="Group_27" data-name="Group 27" transform="translate(0 11.142)">
                  <g id="Group_26" data-name="Group 26" transform="translate(6.091 6.159)">
                    <text id="Entry_password" data-name="Entry password" transform="translate(0 5)" fill="#37366a" font-size="5" font-family="Montserrat-Regular, Montserrat"><tspan x="0" y="0">Entry password</tspan></text>
                  </g>
                  <path id="Path_25" data-name="Path 25" d="M347.6,302.075H225.454a3.648,3.648,0,0,1-3.654-3.654V286.154a3.648,3.648,0,0,1,3.654-3.654H347.6a3.648,3.648,0,0,1,3.654,3.654v12.267A3.827,3.827,0,0,1,347.6,302.075Z" transform="translate(-221.8 -282.5)" fill="none" stroke="#37366a" stroke-miterlimit="10" stroke-width="0.5"/>
                </g>
              </g>
            </g>
          </g>
          <line id="Line_1" data-name="Line 1" y2="6.786" transform="translate(59.116 54.549)" fill="none" stroke="#50c3e2" stroke-miterlimit="10" stroke-width="0.5"/>
        </g>
      </g>
    </g>
    <g id="Group_44" data-name="Group 44" transform="translate(232.218 233.82)">
      <ellipse id="Ellipse_2" data-name="Ellipse 2" cx="83.128" cy="2.74" rx="83.128" ry="2.74" transform="translate(0 302.767)" fill="#6756ad" opacity="0.25"/>
      <g id="Group_43" data-name="Group 43" transform="translate(28.057)">
        <path id="Path_26" data-name="Path 26" d="M261.2,285.75s8.221,12.789,10.179,7.177c1.827-5.481,3-8.874,3-8.874s-2.349-3.784-3.654-2.61-3-1.044-3-1.044Z" transform="translate(-197.386 -156.287)" fill="#f5ba9a"/>
        <g id="Group_34" data-name="Group 34" transform="translate(76.424 17.626)">
          <path id="Path_27" data-name="Path 27" d="M299.1,244.605l3.393-19.836c2.219-.783,4.567-2.479,3.784-5.089a3.77,3.77,0,0,0-2.74-2.479c-.522-.131-2.871-.913-3,0l1.3-7.177L278.611,198.8s-2.088,14.224-2.088,14.355c0-.261-2.219-.783-2.61-.652a3.671,3.671,0,0,0-2.74,2.219,4.6,4.6,0,0,0,4.045,6.133s.392,6.394,1.827,8.613,8.352,3.784,8.352,3.784l-.783,8.613Z" transform="translate(-270.863 -198.8)" fill="#f5ba9a"/>
        </g>
        <g id="Group_35" data-name="Group 35" transform="translate(77.517 59.646)">
          <path id="Path_28" data-name="Path 28" d="M306.8,236.481c-10.57-3-25.317-5.481-25.317-5.481L271.7,300.687l41.238-1.3Z" transform="translate(-271.7 -231)" fill="#ffa938"/>
        </g>
        <g id="Group_36" data-name="Group 36" transform="translate(112.621 31.72)">
          <path id="Path_29" data-name="Path 29" d="M298.6,243.008a278.542,278.542,0,0,0,41.368,7.83c-3.132-14.355-4.828-25.186-9-37.323,3.915-1.044,11.614-3,15.529-3.915,0,0,13.05,45.283,9,51.286C348.842,271.2,315.3,264.41,315.3,264.41l-15.79-2.871Z" transform="translate(-298.6 -209.6)" fill="#ffa938"/>
        </g>
        <g id="Group_37" data-name="Group 37" transform="translate(32.592 59.495)">
          <path id="Path_30" data-name="Path 30" d="M246.573,251.785s44.239-21.663,46.327-20.88,3.784,10.831,3.784,10.831a403.488,403.488,0,0,1-40.846,21.793l22.576,30.8-11.223,8.091s-31.059-34.843-29.884-42.021C238.221,254.786,246.573,251.785,246.573,251.785Z" transform="translate(-237.275 -230.884)" fill="#ffa938"/>
        </g>
        <path id="Path_31" data-name="Path 31" d="M340.862,217.013s-1.827-12.789-2.088-13.18-.261-2.61-3.523-2.088c0,0-.261-4.046-2.088-4.176a15.162,15.162,0,0,0-4.046.391s-2.088-10.44-3.523-12.267c-1.566-1.958-3.654,3.262-.391,15.921,0,0,1.827,8.613,1.3,9-1.436.913-3.523.652-6.264-4.046-3-5.089-6.655-3.393-4.828.522s4.437,9,6.133,10.44,5.22,1.174,5.22,1.174l.522,1.7Z" transform="translate(-181 -185.294)" fill="#f5ba9a"/>
        <g id="Group_38" data-name="Group 38" transform="translate(0 123.852)">
          <path id="Path_32" data-name="Path 32" d="M331.054,284.376C326.1,359.8,309.261,452.981,309.261,452.981l16.573,7.047H290.6l23.1-164.69h-7.96L247.4,460.028H212.3l19.966-7.308L290.6,280.2Z" transform="translate(-212.3 -280.2)" fill="#594656"/>
        </g>
        <path id="Path_33" data-name="Path 33" d="M304.242,218.878c1.958-3.915,4.307-13.441-1.7-16.182a77.333,77.333,0,0,1-8.743-4.959,15.024,15.024,0,0,0-12.4-2.218,6.152,6.152,0,0,0-1.958.783c-4.176,2.088-7.047,13.18-7.047,13.18l4.045,1.044s4.568,20.358,12.136,24.534l7.569,1.566,4.437,1.044Z" transform="translate(-193.97 -182.33)" fill="#b96944"/>
        <g id="Group_40" data-name="Group 40" transform="translate(103.877 14.885)">
          <g id="Group_39" data-name="Group 39">
            <path id="Path_34" data-name="Path 34" d="M292.814,200.745a34.187,34.187,0,0,0-.131-3.654.391.391,0,0,0-.783,0,34.2,34.2,0,0,1,.13,3.654.392.392,0,0,0,.783,0Z" transform="translate(-291.9 -196.7)" fill="#b96944"/>
          </g>
        </g>
        <g id="Group_42" data-name="Group 42" transform="translate(104.184 15.245)">
          <g id="Group_41" data-name="Group 41">
            <path id="Path_35" data-name="Path 35" d="M292.742,200.792c.522-.261.652-.914.914-1.436.391-.652.783-1.3,1.174-1.827.261-.392-.391-.783-.652-.392-.391.522-.652.913-1.044,1.435-.261.392-.522,1.3-.914,1.566-.261.261.13,1.044.522.652Z" transform="translate(-292.135 -196.976)" fill="#b96944"/>
          </g>
        </g>
      </g>
    </g>
    <g id="Group_68" data-name="Group 68" transform="translate(55 225.229)">
      <ellipse id="Ellipse_3" data-name="Ellipse 3" cx="83.128" cy="2.74" rx="83.128" ry="2.74" transform="translate(0 291.261)" fill="#6756ad" opacity="0.25"/>
      <g id="Group_67" data-name="Group 67" transform="translate(5.35)">
        <path id="Path_36" data-name="Path 36" d="M147.265,182.858a46.1,46.1,0,0,0-4.959-.652c-3-.261-5.742,1.7-7.96,3.654a26.439,26.439,0,0,0-5.35,7.177c-1.435,2.61-2.871,5.742-1.957,8.743a4.611,4.611,0,0,1,.522,2.219c0,2.479-3.393,3.393-4.437,5.481-1.3,2.741,1.3,6.394-.392,8.743-.913,1.174-2.61,1.566-3.393,2.74a4.977,4.977,0,0,0-.522,3.393c0,.261,0,.522.261.652a.785.785,0,0,0,.522.13c9.526.913,18.922-1.174,28.449-.261a15.059,15.059,0,0,0,3.393.13,15.337,15.337,0,0,0,4.7-1.566c8.221-3.784,16.443-4.7,24.534-8.874a2.341,2.341,0,0,0,.913-.652,1.935,1.935,0,0,0,.131-.913,5.877,5.877,0,0,0-3.784-4.7c-2.088-.652-4.567-.13-6.394-1.435-1.3-.914-1.7-2.61-1.827-4.176-.392-3.262,0-6.916-2.349-9.135-1.827-1.7-4.7-1.957-6.525-3.654a34.064,34.064,0,0,1-2.479-3.523c-2.48-3.262-6.656-5.22-11.092-3.523" transform="translate(-40.908 -177.652)" fill="#594656"/>
        <g id="Group_45" data-name="Group 45" transform="translate(16.443 112.809)">
          <path id="Path_37" data-name="Path 37" d="M145.693,267.693,92.58,435.777,71.7,443.868h31.059l59.9-158.3a2.552,2.552,0,0,1,2.479-1.7h0a2.606,2.606,0,0,1,2.61,2.871l-15.79,157.121h31.45l-21.01-6.917s19.575-91.35,23.881-119.929-1.957-48.807-1.957-48.807S163.963,261.69,145.693,267.693Z" transform="translate(-71.7 -265.154)" fill="#53648c"/>
        </g>
        <g id="Group_46" data-name="Group 46" transform="translate(91.089 50.445)">
          <path id="Path_38" data-name="Path 38" d="M128.9,221.848c4.828-5.089,24.273-5.611,31.189-2.741,7.047,2.871,19.836,40.063,19.836,40.063l-12.789,5.089-7.96-31.059-24.925-3.393Z" transform="translate(-128.9 -217.365)" fill="#e1806d"/>
        </g>
        <g id="Group_47" data-name="Group 47" transform="translate(89.784 53.622)">
          <path id="Path_39" data-name="Path 39" d="M161.96,236.765a37.029,37.029,0,0,0,2.61-9.135c.522-3.915-4.959-7.83-4.959-7.83l-29.232,7.569,1.827,17.487L127.9,280.091l37.192,1.436-3.784-44.5" transform="translate(-127.9 -219.8)" fill="#e1806d"/>
        </g>
        <g id="Group_48" data-name="Group 48" transform="translate(93.874 67.76)">
          <path id="Path_40" data-name="Path 40" d="M131.642,234.5a.479.479,0,0,1-.391-.131.615.615,0,0,1-.131-.783l2.088-2.741a.561.561,0,0,1,.914.652l-2.088,2.741C132.034,234.374,131.773,234.5,131.642,234.5Z" transform="translate(-131.034 -230.634)" fill="#5d95ba"/>
        </g>
        <g id="Group_49" data-name="Group 49" transform="translate(75.82 116)">
          <path id="Path_41" data-name="Path 41" d="M117.2,271.515l6.655-3.915" transform="translate(-117.2 -267.6)" fill="#8fcaec"/>
        </g>
        <g id="Group_50" data-name="Group 50" transform="translate(93.628 6.902)">
          <path id="Path_42" data-name="Path 42" d="M142.14,227.717c-.392-3.915,1.566-7.83-4.7-10.309-8.613-3.523-10.57-33.277,5.089-33.408s14.877,19.575,14.746,25.447c0,5.872-5.22,7.308-6.525,9.4s-.131,8.743-.131,8.743H142.14Z" transform="translate(-130.846 -184)" fill="#f5ba9a"/>
        </g>
        <g id="Group_51" data-name="Group 51" transform="translate(90.045 24.52)">
          <ellipse id="Ellipse_4" data-name="Ellipse 4" cx="3.001" cy="3.523" rx="3.001" ry="3.523" fill="#f5ba9a"/>
        </g>
        <g id="Group_52" data-name="Group 52" transform="translate(118.102 21.91)">
          <ellipse id="Ellipse_5" data-name="Ellipse 5" cx="3.001" cy="3.523" rx="3.001" ry="3.523" fill="#f5ba9a"/>
        </g>
        <path id="Path_43" data-name="Path 43" d="M244.8,249.345,240.1,237.6,109.212,289.017a27.8,27.8,0,1,0,5.481,16.573,29.69,29.69,0,0,0-.261-3.393l99.832-40.455,5.481,12.006,12.136-5.611-4.306-9.526,3.915-2.088,4.7,9.265,8.743-4.7L240.1,251.3ZM86.9,323.6a18.139,18.139,0,1,1,18.139-18.139A18.1,18.1,0,0,1,86.9,323.6Z" transform="translate(-59.1 -160.749)" fill="#b3adec"/>
        <g id="Group_53" data-name="Group 53" transform="translate(57.811 54.927)">
          <path id="Path_44" data-name="Path 44" d="M136.677,220.8s-33.016,29.362-33.277,34.843c-.131,5.481,19.444,34.191,19.444,34.191l9.787-6.264-13.7-25.708,22.315-21.4s.783,4.959,2.479,6.264l1.044-19.575Z" transform="translate(-103.4 -220.8)" fill="#e1806d"/>
        </g>
        <path id="Path_45" data-name="Path 45" d="M154.159,191.564c-4.306.261-23.359,2.218-23.359,2.218s2.74-11.484,11.614-11.875C154.159,181.254,154.159,191.564,154.159,191.564Z" transform="translate(-37.232 -177.745)" fill="#594656"/>
        <path id="Path_46" data-name="Path 46" d="M131.107,201.444s15.4-1.435,18.139-8.743c0,0,5.089,6.525,8.091,6.264,0,0,.522-8.613-1.436-9.787s-25.578,1.174-25.578,1.174A38.908,38.908,0,0,0,131.107,201.444Z" transform="translate(-37.409 -175.618)" fill="#594656"/>
        <path id="Path_47" data-name="Path 47" d="M118.7,274.711s4.176,8.874,4.437,9.135.783,1.827,3,.783c0,0,1.044,2.871,2.479,2.479a15.489,15.489,0,0,0,2.871-1.174s1.7,2.219,3,1.044c1.435-1.436.13-3-.914-4.567,0,0-3.262-5.872-3-6.264.914-.914,2.349-1.3,5.481,1.566,3.262,3,5.611.913,3.393-1.566s-5.22-5.611-6.786-6.264-4.045.261-4.045.261l-.783-1.044Z" transform="translate(-40.922 -151.142)" fill="#f5ba9a"/>
        <path id="Path_48" data-name="Path 48" d="M178.3,259.1s-2.349,6.786-6.525,7.83C167.6,268.1,144.5,272.8,144.5,272.8v-9.135Z" transform="translate(-33.054 -154.192)" fill="#e1806d"/>
        <path id="Path_49" data-name="Path 49" d="M149,264.185h-1.827a10.323,10.323,0,0,0-.652-1.7c-.783-1.174-10.44-2.349-10.309-1.174.131,1.3,1.827,1.566,5.22,2.219,0,0-12.789,3.132-11.614,4.176s9.135-1.3,9.135-1.3-8.613,2.871-8.091,4.7c.392,1.044,9.135-1.436,9.135-1.436s-8.874,3.132-7.308,4.306c1.566,1.044,11.484-1.3,12.4-1.7s1.3-2.219,1.3-2.219l2.349-.391v-5.481Z" transform="translate(-37.555 -153.665)" fill="#f5ba9a"/>
        <g id="Group_54" data-name="Group 54" transform="translate(104.256)">
          <path id="Path_50" data-name="Path 50" d="M139,179.349c.391,1.436.522,3.132,1.3,4.437.391.522,1.174,0,.783-.522-.783-1.174-.913-2.871-1.174-4.176-.131-.652-1.044-.392-.914.261Z" transform="translate(-138.99 -178.71)" fill="#594656"/>
        </g>
        <g id="Group_55" data-name="Group 55" transform="translate(105.467 1.858)">
          <path id="Path_51" data-name="Path 51" d="M140.808,183.352c.522-.913,1.044-1.7,1.566-2.479.392-.522-.522-1.044-.783-.522-.522.783-1.044,1.7-1.566,2.479-.392.652.391,1.044.783.522Z" transform="translate(-139.918 -180.134)" fill="#594656"/>
        </g>
        <g id="Group_56" data-name="Group 56" transform="translate(108.184 24.957)">
          <path id="Path_52" data-name="Path 52" d="M142,198.051a27.275,27.275,0,0,0,.131,3.262c.131.522,0,1.566.391,1.957a1.242,1.242,0,0,0,.913.261l3.132.391c0-.13-.131-.261-.131-.391a9.186,9.186,0,0,1-3,1.957c-.261.13,0,.522.261.391a10.125,10.125,0,0,0,3.132-2.088.25.25,0,0,0-.131-.392c-1.044-.13-3.393,0-3.915-1.174-.522-1.044-.261-3.132-.261-4.306-.13-.13-.522-.13-.522.13Z" transform="translate(-142 -197.834)" fill="#f49e78"/>
        </g>
        <g id="Group_57" data-name="Group 57" transform="translate(112.589 23.83)">
          <path id="Path_53" data-name="Path 53" d="M145.8,201.707c.131-1.044-.522-3.654.783-4.176,1.174-.522,1.957.522,2.218,1.566l.392,1.957c0,.261.522.13.522-.131-.261-1.566-.392-4.306-2.74-3.915-2.218.261-1.436,3.393-1.566,4.7-.13.261.392.261.392,0Z" transform="translate(-145.375 -196.971)" fill="#514540"/>
        </g>
        <g id="Group_58" data-name="Group 58" transform="translate(100.322 24.483)">
          <path id="Path_54" data-name="Path 54" d="M136.4,202.207c.131-1.044-.522-3.654.783-4.176,1.174-.522,1.957.522,2.218,1.566l.391,1.957c0,.261.522.13.522-.131-.261-1.566-.391-4.306-2.74-3.915-2.218.261-1.436,3.393-1.566,4.7-.13.261.392.261.392,0Z" transform="translate(-135.975 -197.471)" fill="#514540"/>
        </g>
        <g id="Group_59" data-name="Group 59" transform="translate(103.987 31.646)">
          <path id="Path_55" data-name="Path 55" d="M138.8,203.273c.522,3.915,7.308,4.828,9.787,2.349.261-.261-.13-.522-.392-.391-2.088,1.957-8.482,1.566-8.874-2.088-.13-.261-.652-.261-.522.131Z" transform="translate(-138.784 -202.961)" fill="#f49e78"/>
        </g>
        <g id="Group_60" data-name="Group 60" transform="translate(103.46 31.412)">
          <path id="Path_56" data-name="Path 56" d="M138.8,203.98a1.033,1.033,0,0,1,1.044-.652.28.28,0,0,0,.131-.522,1.417,1.417,0,0,0-1.566.913c-.131.392.261.522.391.261Z" transform="translate(-138.38 -202.781)" fill="#f49e78"/>
        </g>
        <g id="Group_61" data-name="Group 61" transform="translate(98.397 29.824)" opacity="0.28">
          <path id="Path_57" data-name="Path 57" d="M139.328,202.133c.261.522-.783,1.436-2.218,1.7a4.263,4.263,0,0,1-1.827,0,1.2,1.2,0,0,1-.783-.522v-.522c.131-.13.261-.392.522-.522.522-.261,1.044-.391,1.7-.652C138.023,201.48,139.2,201.611,139.328,202.133Z" transform="translate(-134.5 -201.564)" fill="#f28279"/>
        </g>
        <g id="Group_62" data-name="Group 62" transform="translate(114.187 28.696)" opacity="0.28">
          <path id="Path_58" data-name="Path 58" d="M151.428,201.222c.261.522-.783,1.435-2.219,1.7a4.264,4.264,0,0,1-1.827,0,1.2,1.2,0,0,1-.783-.522v-.522c.131-.13.261-.391.522-.522.522-.261,1.044-.392,1.7-.652C149.993,200.7,151.167,200.7,151.428,201.222Z" transform="translate(-146.6 -200.7)" fill="#f28279"/>
        </g>
        <g id="Group_63" data-name="Group 63" transform="translate(91.46 26.217)">
          <path id="Path_59" data-name="Path 59" d="M130.51,198.8a1.474,1.474,0,0,0-1.3,1.827,1.813,1.813,0,0,0,1.566,1.7c.261,0,.261-.391,0-.522-1.3-.131-1.7-2.479-.261-2.479.261,0,.261-.522,0-.522Z" transform="translate(-129.185 -198.8)" fill="#f49e78"/>
        </g>
        <g id="Group_64" data-name="Group 64" transform="translate(91.444 27.104)">
          <path id="Path_60" data-name="Path 60" d="M129.208,199.9a2.006,2.006,0,0,0,1.827.783c.261,0,.261-.522,0-.522a2.161,2.161,0,0,1-1.566-.652c-.13-.131-.391.261-.261.391Z" transform="translate(-129.173 -199.48)" fill="#f49e78"/>
        </g>
        <g id="Group_65" data-name="Group 65" transform="translate(120.595 23.476)">
          <path id="Path_61" data-name="Path 61" d="M151.758,200.354c1.044.261,1.566-.652,1.7-1.566a1.805,1.805,0,0,0-1.566-2.088c-.261,0-.261.392,0,.522a1.168,1.168,0,0,1,1.044,1.3c0,.652-.391,1.566-1.174,1.3-.261,0-.392.392,0,.522Z" transform="translate(-151.511 -196.7)" fill="#f49e78"/>
        </g>
        <g id="Group_66" data-name="Group 66" transform="translate(120.677 23.856)">
          <path id="Path_62" data-name="Path 62" d="M152,198.83a2.275,2.275,0,0,0,.783-1.566.28.28,0,0,0-.522-.13,2.486,2.486,0,0,1-.652,1.3c-.131.261.13.653.391.392Z" transform="translate(-151.573 -196.991)" fill="#f49e78"/>
        </g>
      </g>
    </g>
  </g>
</svg>
